<svg xmlns="http://www.w3.org/2000/svg" viewBox="0 0 600 589" width="600" height="589"><defs></defs><g transform="matrix(1,0,0,1,-535,-206)">
<g transform="matrix(1,0,0,1,535,206)">
	<g transform="matrix(1,0,0,1,-143.289799106,-67.757124029)">
		<path d="M443.28979910617426,67.75712402915758 C608.8252324398784,67.75712402915758 743.2897991061743,199.9565405245612 743.2897991061743,362.7034130916576 C743.2897991061743,525.450285658754 608.8252324398784,657.6497021541576 443.28979910617426,657.6497021541576 C277.75436577247007,657.6497021541576 143.28979910617426,525.450285658754 143.28979910617426,362.7034130916576 C143.28979910617426,199.9565405245612 277.75436577247007,67.75712402915758 443.28979910617426,67.75712402915758 Z" transform="matrix(1,0,0,1,0,0)" fill="#fefefe" stroke="#4b0082" stroke-width="2"/>
	</g>
	<g transform="matrix(1,0,0,1,-143.289799106,-67.757124029)">
		<g transform="matrix(0.861982715,0,0,0.94311908,-373.354862156,-141.372495527)"/>
		<g transform="matrix(0.861982715,0,0,0.94311908,-373.354862156,-141.372495527)">
			<path d="M784.5415021477852,347.83598733023825 C784.5415021477852,347.83598733023825 688.5415021477852,347.83598733023825 688.5415021477852,347.83598733023825 C679.7415019570503,347.83598733023825 672.5415021477852,355.03598427848044 672.5415021477852,363.83598733023825 C672.5415021477852,363.83598733023825 672.5415021477852,715.8359873302383 672.5415021477852,715.8359873302383 C672.5415021477852,724.635975123207 679.7415019570503,731.8359873302383 688.5415021477852,731.8359873302383 C688.5415021477852,731.8359873302383 784.5415021477852,731.8359873302383 784.5415021477852,731.8359873302383 C793.341505199543,731.8359873302383 800.5415021477852,724.635975123207 800.5415021477852,715.8359873302383 C800.5415021477852,715.8359873302383 800.5415021477852,363.83598733023825 800.5415021477852,363.83598733023825 C800.5415021477852,355.03598427848044 793.341505199543,347.83598733023825 784.5415021477852,347.83598733023825 C784.5415021477852,347.83598733023825 784.5415021477852,347.83598733023825 784.5415021477852,347.83598733023825 ZM768.5415021477852,443.83598733023825 C768.5415021477852,443.83598733023825 704.5415021477852,443.83598733023825 704.5415021477852,443.83598733023825 C704.5415021477852,443.83598733023825 704.5415021477852,411.83598733023825 704.5415021477852,411.83598733023825 C704.5415021477852,411.83598733023825 768.5415021477852,411.83598733023825 768.5415021477852,411.83598733023825 C768.5415021477852,411.83598733023825 768.5415021477852,443.83598733023825 768.5415021477852,443.83598733023825 C768.5415021477852,443.83598733023825 768.5415021477852,443.83598733023825 768.5415021477852,443.83598733023825 Z" fill="#fe007e"/>
		</g>
		<g transform="matrix(0.861982715,0,0,0.94311908,-373.354862156,-141.372495527)">
			<path d="M944.5415021477852,347.83598733023825 C944.5415021477852,347.83598733023825 848.5415021477852,347.83598733023825 848.5415021477852,347.83598733023825 C839.7414990960274,347.83598733023825 832.5415021477852,355.03598427848044 832.5415021477852,363.83598733023825 C832.5415021477852,363.83598733023825 832.5415021477852,715.8359873302383 832.5415021477852,715.8359873302383 C832.5415021477852,724.635975123207 839.7414990960274,731.8359873302383 848.5415021477852,731.8359873302383 C848.5415021477852,731.8359873302383 944.5415021477852,731.8359873302383 944.5415021477852,731.8359873302383 C953.341489940754,731.8359873302383 960.5415021477852,724.635975123207 960.5415021477852,715.8359873302383 C960.5415021477852,715.8359873302383 960.5415021477852,363.83598733023825 960.5415021477852,363.83598733023825 C960.5415021477852,355.03598427848044 953.341489940754,347.83598733023825 944.5415021477852,347.83598733023825 C944.5415021477852,347.83598733023825 944.5415021477852,347.83598733023825 944.5415021477852,347.83598733023825 ZM928.5415021477852,443.83598733023825 C928.5415021477852,443.83598733023825 864.5415021477852,443.83598733023825 864.5415021477852,443.83598733023825 C864.5415021477852,443.83598733023825 864.5415021477852,411.83598733023825 864.5415021477852,411.83598733023825 C864.5415021477852,411.83598733023825 928.5415021477852,411.83598733023825 928.5415021477852,411.83598733023825 C928.5415021477852,411.83598733023825 928.5415021477852,443.83598733023825 928.5415021477852,443.83598733023825 C928.5415021477852,443.83598733023825 928.5415021477852,443.83598733023825 928.5415021477852,443.83598733023825 Z" fill="#4b0082"/>
		</g>
		<g transform="matrix(0.861982715,0,0,0.94311908,-373.354862156,-141.372495527)">
			<path d="M1055.0855084954414,372.5759851940078 C1055.0855084954414,372.5759851940078 969.3535138665352,415.7729837901992 969.3535138665352,415.7729837901992 C961.4955121575508,419.73198342398825 958.3055097161446,429.40198159293357 962.2644940911446,437.26099038199607 C962.2644940911446,437.26099038199607 1106.2535077630196,723.0349924571914 1106.2535077630196,723.0349924571914 C1110.2124921380196,730.8940012462539 1119.882505565754,734.083973170082 1127.7415143548164,730.1239817150039 C1127.7415143548164,730.1239817150039 1213.4735089837227,686.9279978282851 1213.4735089837227,686.9279978282851 C1221.331480175129,682.9679758556289 1224.5214826165352,673.2979929454726 1220.5624982415352,665.4409983165664 C1220.5624982415352,665.4409983165664 1076.5735150872383,379.66598916129294 1076.5735150872383,379.66598916129294 C1072.613493114582,371.806988001625 1062.9435102044258,368.61598610953513 1055.0855084954414,372.5759851940078 C1055.0855084954414,372.5759851940078 1055.0855084954414,372.5759851940078 1055.0855084954414,372.5759851940078 Z" fill="#38fe14"/>
		</g>
	</g>
</g></g></svg>