<svg xmlns="http://www.w3.org/2000/svg" viewBox="0 0 750 751" width="750" height="751"><defs></defs><g transform="matrix(1,0,0,1,-13,2)">
<rect fill="#ffffff" fill-opacity="0" x="13" y="-2" width="750" height="750"/>
<g transform="matrix(1,0,0,1,13,-2)">
	<g>
		<path d="M372.4871605770908,5.384254434255581 C575.6623585524113,5.384254434255581 740.7017365447715,172.57431119486483 740.7017365447715,378.397147508598 C740.7017365447715,584.2199838223312 575.6623585524113,751.4100405829404 372.4871605770908,751.4100405829404 C169.3119626017702,751.4100405829404 4.272584609410046,584.2199838223312 4.272584609410046,378.397147508598 C4.272584609410046,172.57431119486483 169.3119626017702,5.384254434255581 372.4871605770908,5.384254434255581 Z" transform="matrix(1,0,0,1,0,0)" fill="#1a0a2d" stroke="#1a0a2d" stroke-width="2"/>
	</g>
	<g>
		<path d="M470.4187265425004,192.23968412374728 C486.7412229436672,192.23968412374728 500.0000000000002,209.53573385925074 500.0000000000002,230.828399718453 C500.0000000000002,252.12106557765526 486.7412229436672,269.4171153131587 470.4187265425004,269.4171153131587 C454.0962301413336,269.4171153131587 440.83745308500056,252.12106557765526 440.83745308500056,230.828399718453 C440.83745308500056,209.53573385925074 454.0962301413336,192.23968412374728 470.4187265425004,192.23968412374728 Z" transform="matrix(1,0,0,1,0,0)" fill="#fe007e" stroke="#000000" stroke-width="2"/>
	</g>
	<g>
		<path d="M851.9461822613365,652.2285091600638 C856.0259060042587,689.5454846650176 860.1056297471807,726.8624601699714 875.2896933440363,735.8875680674275 C890.4737569408919,744.9126759648836 916.7621603916807,725.6459162548417 938.6037397763268,727.001412873693 C960.445319160973,728.3569094925442 977.8400744794761,750.3346624402884 960,760.3246219681521 C942.1599255205239,770.3145814960158 889.0850212430674,768.3167476039998 861.9604097062527,749.2168517052112 C834.8357981694379,730.1169558064225 833.6614793732645,693.914997900861 832.4871605770908,657.7130399952994" transform="matrix(1,0,0,1,-468.185013234,-133.76690868)" fill="#38fe14" stroke="#000000" stroke-width="2"/>
	</g>
	<g>
		<path d="M851.9461822613365,652.2285091600638 C856.0259060042587,689.5454846650176 860.1056297471807,726.8624601699714 875.2896933440363,735.8875680674275 C890.4737569408919,744.9126759648836 916.7621603916807,725.6459162548417 938.6037397763268,727.001412873693 C960.445319160973,728.3569094925442 977.8400744794761,750.3346624402884 960,760.3246219681521 C942.1599255205239,770.3145814960158 889.0850212430674,768.3167476039998 861.9604097062527,749.2168517052112 C834.8357981694379,730.1169558064225 833.6614793732645,693.914997900861 832.4871605770908,657.7130399952994" transform="matrix(1,0,0,1,-575.435824989,-116)" fill="#38fe14" stroke="#000000" stroke-width="2"/>
	</g>
	<g>
		<path d="M938.6037397763268,308.23968412374717 C951.3019188132812,315.4006882529394 964.0000978502358,322.56169238213175 1005.250208812427,323.7905319835554 C1046.5003197746182,325.01937158497907 1116.3023626620459,320.3160466586338 1095.2228733674667,324.9012886709767 C1074.1433840728876,329.48653068331964 962.1823625963015,343.36033963435057 938.6037397763268,391.5477068598951 C915.0251169563522,439.7350740854396 979.8288927929893,522.2359995854981 960,578.1576777888663 C940.1711072070107,634.0793559922345 835.709545784395,663.4217868989126 738.6645360567538,674.7949841627978 C641.6195263291127,686.1681814266831 551.9910682964457,679.5721450477754 547.6114366837335,649.2472244218337 C543.2318050710212,618.922303795892 624.1009998782636,564.8684989229159 705.3412761151128,540 C786.581552351962,515.1315010770841 868.1929100184182,519.4483081042288 900.8374530850004,492.62814167787576 C933.4819961515827,465.80797525152275 917.1597246182916,407.8508353716719 900.8374530850004,349.8936954918211" transform="matrix(1,0,0,1,-460,-116)" fill="#fe007e" stroke="#000000" stroke-width="2"/>
	</g>
</g></g></svg>